<svg width="108" height="51" viewBox="0 0 108 51" fill="none" xmlns="http://www.w3.org/2000/svg">
<path d="M39 46L105 50" stroke="#403E3D" stroke-width="2"/>
<rect y="14" width="32" height="33.3732" fill="#6C6A69"/>
<path d="M21.488 22.416C21.76 22.416 22.008 22.44 22.232 22.488C22.456 22.536 22.64 22.672 22.784 22.896C22.944 23.104 23.024 23.472 23.024 24C23.024 24.496 22.944 24.856 22.784 25.08C22.64 25.304 22.448 25.44 22.208 25.488C21.968 25.536 21.712 25.56 21.44 25.56H17.576V37.44C17.576 37.744 17.544 38.032 17.48 38.304C17.432 38.576 17.28 38.8 17.024 38.976C16.784 39.136 16.368 39.216 15.776 39.216C15.2 39.216 14.784 39.136 14.528 38.976C14.272 38.8 14.12 38.576 14.072 38.304C14.024 38.016 14 37.72 14 37.416V25.56H10.088C9.832 25.56 9.584 25.536 9.344 25.488C9.104 25.424 8.912 25.288 8.768 25.08C8.624 24.856 8.552 24.488 8.552 23.976C8.552 23.464 8.624 23.104 8.768 22.896C8.912 22.672 9.104 22.536 9.344 22.488C9.584 22.44 9.832 22.416 10.088 22.416H21.488Z" fill="white"/>
<rect x="0.607863" y="0.346103" width="27.0857" height="28.1191" transform="matrix(0.961464 -0.27493 0.254262 0.967135 21.9354 9.71951)" fill="#A7A5A4" stroke="#F01C00"/>
<path d="M41.4629 27.9596C40.4476 28.2499 39.4384 28.3326 38.4352 28.2077C37.4424 28.0645 36.518 27.7493 35.6622 27.262C34.8167 26.7565 34.0772 26.1063 33.4436 25.3113C32.8242 24.5124 32.3766 23.5881 32.1006 22.5384C31.8209 21.4746 31.7432 20.4292 31.8674 19.4024C32.002 18.3573 32.3004 17.3874 32.7627 16.4927C33.239 15.594 33.8621 14.821 34.6319 14.1738C35.4018 13.5267 36.2874 13.0599 37.2886 12.7736C38.3039 12.4833 39.3079 12.4097 40.3007 12.5528C41.3039 12.6778 42.2283 12.993 43.0738 13.4985C43.9193 14.004 44.6536 14.6634 45.2767 15.4765C45.9139 16.2856 46.3743 17.2292 46.6577 18.3072C46.9299 19.3427 46.9969 20.3759 46.8585 21.4067C46.7305 22.4194 46.4284 23.3751 45.9521 24.2738C45.4721 25.1584 44.8471 25.9243 44.0772 26.5715C43.3215 27.2146 42.45 27.6773 41.4629 27.9596ZM40.5069 24.7557C41.071 24.5944 41.5699 24.3297 42.0038 23.9616C42.4377 23.5936 42.7876 23.1656 43.0536 22.6778C43.3299 22.1717 43.4978 21.6281 43.5572 21.0468C43.627 20.4473 43.5799 19.8355 43.4158 19.2113C43.2592 18.6156 43.0061 18.0855 42.6566 17.6212C42.3034 17.1427 41.8842 16.7592 41.399 16.4709C40.9242 16.1644 40.4102 15.9683 39.857 15.8824C39.3179 15.7926 38.7663 15.8283 38.2023 15.9896C37.6523 16.1468 37.1604 16.4095 36.7265 16.7776C36.3067 17.1417 35.9605 17.5838 35.6879 18.104C35.4257 18.606 35.2526 19.1588 35.1687 19.7623C35.0952 20.3477 35.1386 20.9453 35.2989 21.5552C35.4556 22.151 35.7105 22.6881 36.0637 23.1667C36.4273 23.627 36.8447 24.0033 37.3157 24.2956C37.8009 24.5839 38.313 24.773 38.8521 24.8629C39.3912 24.9527 39.9428 24.917 40.5069 24.7557Z" fill="white"/>
<path d="M38.4352 28.2077L38.277 29.2031L38.2864 29.2045L38.2957 29.2056L38.4352 28.2077ZM35.6622 27.262L35.1443 28.1299L35.1531 28.1352L35.1621 28.1403L35.6622 27.262ZM33.4436 25.3113L32.6565 25.9406L32.6647 25.9509L33.4436 25.3113ZM31.8674 19.4024L30.8812 19.2907L30.8803 19.2985L31.8674 19.4024ZM32.7627 16.4927L31.8879 16.0306L31.8829 16.0402L32.7627 16.4927ZM40.3007 12.5528L40.1426 13.5483L40.1519 13.5496L40.1613 13.5508L40.3007 12.5528ZM43.0738 13.4985L43.5916 12.6306L43.5916 12.6306L43.0738 13.4985ZM45.2767 15.4765L44.4863 16.1015L44.4943 16.1116L45.2767 15.4765ZM46.8585 21.4067L45.873 21.2896L45.8721 21.2974L46.8585 21.4067ZM45.9521 24.2738L46.822 24.7449L46.8268 24.7359L45.9521 24.2738ZM44.0772 26.5715L43.4498 25.8032L43.4451 25.8072L44.0772 26.5715ZM42.0038 23.9616L41.3728 23.1964L42.0038 23.9616ZM43.0536 22.6778L42.185 22.2044L42.1846 22.205L43.0536 22.6778ZM43.5572 21.0468L42.5695 20.9474L42.5687 20.9545L42.568 20.9617L43.5572 21.0468ZM42.6566 17.6212L41.8556 18.232L41.8611 18.2393L42.6566 17.6212ZM41.399 16.4709L40.8529 17.3213L40.868 17.331L40.8834 17.3402L41.399 16.4709ZM39.857 15.8824L39.6777 16.8746L39.6885 16.8763L39.857 15.8824ZM36.7265 16.7776L36.0955 16.0123L36.0871 16.0196L36.7265 16.7776ZM35.6879 18.104L34.811 17.6462L34.8104 17.6474L35.6879 18.104ZM35.1687 19.7623L34.1839 19.6404L34.1822 19.6538L35.1687 19.7623ZM36.0637 23.1667L35.2628 23.7775L35.2723 23.7903L35.2822 23.8029L36.0637 23.1667ZM37.3157 24.2956L36.7842 25.1552L36.7921 25.1601L36.8001 25.1649L37.3157 24.2956ZM41.2086 26.9924C40.3169 27.2474 39.4415 27.3177 38.5746 27.2097L38.2957 29.2056C39.4352 29.3475 40.5783 29.2524 41.7172 28.9267L41.2086 26.9924ZM38.5933 27.2122C37.7191 27.0862 36.9109 26.81 36.1622 26.3837L35.1621 28.1403C36.1251 28.6886 37.1656 29.0429 38.277 29.2031L38.5933 27.2122ZM36.18 26.3941C35.4373 25.9501 34.7855 25.3781 34.2226 24.6718L32.6647 25.9509C33.3688 26.8344 34.196 27.5629 35.1443 28.1299L36.18 26.3941ZM34.2307 24.6821C33.6976 23.9946 33.3063 23.1926 33.0621 22.2635L31.1391 22.8134C31.4468 23.9836 31.9508 25.0302 32.6566 25.9406L34.2307 24.6821ZM33.0621 22.2635C32.8124 21.3138 32.7468 20.3971 32.8546 19.5063L30.8803 19.2985C30.7396 20.4614 30.8294 21.6353 31.1391 22.8134L33.0621 22.2635ZM32.8536 19.5141C32.9737 18.5818 33.238 17.728 33.6424 16.9452L31.8829 16.0402C31.3629 17.0468 31.0304 18.1329 30.8813 19.2907L32.8536 19.5141ZM33.6374 16.9548C34.0522 16.1721 34.5916 15.5035 35.2594 14.9421L34.0045 13.4056C33.1325 14.1386 32.4258 15.0158 31.888 16.0306L33.6374 16.9548ZM35.2594 14.9421C35.915 14.391 36.672 13.9898 37.5428 13.7408L37.0343 11.8065C35.9027 12.1301 34.8887 12.6623 34.0045 13.4056L35.2594 14.9421ZM37.5428 13.7408C38.4297 13.4872 39.2933 13.4258 40.1426 13.5483L40.4589 11.5574C39.3226 11.3936 38.178 11.4794 37.0343 11.8065L37.5428 13.7408ZM40.1613 13.5508C41.0336 13.6594 41.8287 13.9316 42.5559 14.3664L43.5916 12.6306C42.6278 12.0544 41.5743 11.6961 40.4402 11.5549L40.1613 13.5508ZM42.5559 14.3664C43.2923 14.8067 43.9352 15.3823 44.4863 16.1014L46.0671 14.8516C45.3719 13.9445 44.5462 13.2014 43.5916 12.6306L42.5559 14.3664ZM44.4943 16.1116C45.042 16.807 45.4448 17.6258 45.6962 18.5821L47.6192 18.0323C47.3037 16.8325 46.7859 15.7642 46.0591 14.8414L44.4943 16.1116ZM45.6962 18.5821C45.9362 19.4951 45.9931 20.3951 45.8731 21.2896L47.844 21.5238C48.0006 20.3566 47.9236 19.1903 47.6192 18.0323L45.6962 18.5821ZM45.8721 21.2974C45.7595 22.1878 45.495 23.0238 45.0774 23.8118L46.8268 24.7359C47.3618 23.7264 47.7016 22.651 47.845 21.516L45.8721 21.2974ZM45.0822 23.8028C44.6639 24.5737 44.1213 25.2387 43.4498 25.8032L44.7047 27.3397C45.5729 26.6099 46.2802 25.7432 46.822 24.7449L45.0822 23.8028ZM43.4451 25.8072C42.8046 26.3522 42.0634 26.748 41.2086 26.9924L41.7172 28.9267C42.8366 28.6066 43.8383 28.077 44.7094 27.3357L43.4451 25.8072ZM40.7612 25.7228C41.4576 25.5237 42.0862 25.1923 42.6348 24.7269L41.3728 23.1964C41.0536 23.4672 40.6843 23.6651 40.2526 23.7886L40.7612 25.7228ZM42.6348 24.7269C43.1625 24.2792 43.5942 23.7528 43.9225 23.1506L42.1846 22.205C41.981 22.5784 41.7128 22.9079 41.3728 23.1964L42.6348 24.7269ZM43.9222 23.1512C44.2653 22.5228 44.4733 21.8467 44.5464 21.1319L42.568 20.9617C42.5222 21.4094 42.3945 21.8207 42.185 22.2044L43.9222 23.1512ZM44.5449 21.1462C44.6304 20.4115 44.5708 19.6727 44.3773 18.9364L42.4543 19.4863C42.5889 19.9983 42.6236 20.4831 42.5695 20.9474L44.5449 21.1462ZM44.3773 18.9364C44.1896 18.2227 43.8824 17.5748 43.4521 17.003L41.8611 18.2393C42.1298 18.5963 42.3287 19.0085 42.4543 19.4863L44.3773 18.9364ZM43.4576 17.0104C43.0311 16.4327 42.5166 15.9594 41.9146 15.6017L40.8834 17.3402C41.2518 17.5591 41.5756 17.8526 41.8557 18.232L43.4576 17.0104ZM41.9452 15.6206C41.3575 15.2412 40.7152 14.9955 40.0255 14.8885L39.6885 16.8763C40.1053 16.941 40.491 17.0876 40.8529 17.3213L41.9452 15.6206ZM40.0364 14.8903C39.3441 14.7749 38.6443 14.8234 37.948 15.0225L38.4565 16.9567C38.8884 16.8332 39.2918 16.8103 39.6777 16.8746L40.0364 14.8903ZM37.948 15.0225C37.262 15.2186 36.6412 15.5494 36.0955 16.0123L37.3575 17.5429C37.6796 17.2697 38.0426 17.0751 38.4565 16.9567L37.948 15.0225ZM36.0871 16.0196C35.565 16.4724 35.1401 17.0182 34.811 17.6462L36.5649 18.5618C36.781 18.1494 37.0485 17.8109 37.366 17.5356L36.0871 16.0196ZM34.8104 17.6474C34.4893 18.2621 34.2828 18.9295 34.1839 19.6404L36.1535 19.8843C36.2225 19.3882 36.3622 18.9499 36.5655 18.5606L34.8104 17.6474ZM34.1822 19.6538C34.0912 20.3775 34.1469 21.1053 34.3375 21.8302L36.2604 21.2803C36.1303 20.7852 36.0991 20.3179 36.1553 19.8709L34.1822 19.6538ZM34.3375 21.8302C34.5252 22.544 34.8334 23.1957 35.2628 23.7775L36.8647 22.5558C36.5876 22.1805 36.386 21.758 36.2604 21.2803L34.3375 21.8302ZM35.2822 23.8029C35.7118 24.3468 36.2124 24.8004 36.7842 25.1552L37.8473 23.4361C37.4769 23.2062 37.1429 22.9072 36.8453 22.5304L35.2822 23.8029ZM36.8001 25.1649C37.385 25.5124 38.0106 25.7446 38.6728 25.855L39.0315 23.8707C38.6154 23.8014 38.2168 23.6554 37.8313 23.4264L36.8001 25.1649ZM38.6728 25.855C39.3651 25.9704 40.0649 25.9219 40.7612 25.7228L40.2526 23.7886C39.8208 23.9121 39.4174 23.935 39.0315 23.8707L38.6728 25.855Z" fill="#F01C00"/>
<rect width="22.0538" height="22.8923" transform="matrix(0.969289 0.245926 -0.22717 0.973855 53 1.19775)" fill="#FC5640"/>
<path d="M67.3879 9.87077C67.7579 10.2913 67.9283 10.6481 67.8989 10.9412C67.8848 11.225 67.7027 11.5316 67.3528 11.8609L62.0987 16.7405L61.257 20.3486C61.2023 20.583 61.1245 20.805 61.0236 21.0146C60.9256 21.2118 60.7625 21.3534 60.5345 21.4392C60.3186 21.5282 59.9774 21.5135 59.5109 21.3951C59.0566 21.2798 58.7471 21.1294 58.5823 20.9439C58.4175 20.7584 58.3365 20.5484 58.3391 20.3139C58.3541 20.0825 58.3904 19.8434 58.4479 19.5967L59.2809 16.0256L56.7449 9.16948C56.5669 8.70621 56.5416 8.3405 56.6692 8.07236C56.7968 7.80422 57.11 7.57664 57.6087 7.38962C57.9769 7.2609 58.2758 7.20608 58.5054 7.22514C58.735 7.24421 58.9275 7.33878 59.0829 7.50886C59.2383 7.67894 59.3689 7.92765 59.4746 8.25498L61.2869 13.6144L65.331 9.74086C65.5965 9.49465 65.8281 9.33784 66.0259 9.27043C66.2389 9.19381 66.4515 9.20203 66.6639 9.29511C66.8763 9.38819 67.1176 9.58007 67.3879 9.87077Z" fill="white"/>
<path d="M44.318 44.2998C43.832 44.2998 43.454 44.2098 43.184 44.0298C42.932 43.8498 42.743 43.6338 42.617 43.3818C42.509 43.1298 42.419 42.9138 42.347 42.7338L38.54 33.3108C38.414 32.8788 38.351 32.5188 38.351 32.2308C38.369 31.9248 38.477 31.6728 38.675 31.4748C38.891 31.2588 39.224 31.0698 39.674 30.9078C40.358 30.6198 40.916 30.5388 41.348 30.6648C41.78 30.7908 42.104 31.1598 42.32 31.7718L44.318 37.1988L46.1 32.2038C46.172 32.0238 46.271 31.8258 46.397 31.6098C46.523 31.3758 46.712 31.1688 46.964 30.9888C47.234 30.8088 47.594 30.7188 48.044 30.7188C48.53 30.7188 48.908 30.8088 49.178 30.9888C49.448 31.1688 49.646 31.3758 49.772 31.6098C49.916 31.8438 50.015 32.0418 50.069 32.2038L51.851 37.1988L53.741 32.0958C53.993 31.4298 54.326 30.9798 54.74 30.7458C55.154 30.5118 55.703 30.5388 56.387 30.8268C57.017 31.0968 57.449 31.4298 57.683 31.8258C57.917 32.2218 57.89 32.7258 57.602 33.3378L53.795 42.7338C53.723 42.9318 53.624 43.1568 53.498 43.4088C53.372 43.6608 53.183 43.8678 52.931 44.0298C52.679 44.2098 52.328 44.2998 51.878 44.2998C51.41 44.2998 51.05 44.2188 50.798 44.0568C50.546 43.9128 50.348 43.7148 50.204 43.4628C50.078 43.2108 49.97 42.9588 49.88 42.7068L48.071 37.7388L46.289 42.7068C46.163 43.0308 46.046 43.3188 45.938 43.5708C45.83 43.8048 45.65 43.9848 45.398 44.1108C45.164 44.2368 44.804 44.2998 44.318 44.2998ZM65.1515 44.4888C64.3055 44.4888 63.4595 44.3268 62.6135 44.0028C61.7855 43.6608 61.0295 43.1838 60.3455 42.5718C59.6615 41.9598 59.1215 41.2308 58.7255 40.3848C58.3295 39.5208 58.1315 38.5668 58.1315 37.5228C58.1315 36.5508 58.3115 35.6508 58.6715 34.8228C59.0315 33.9768 59.5355 33.2298 60.1835 32.5818C60.8315 31.9338 61.5695 31.4298 62.3975 31.0698C63.2435 30.6918 64.1435 30.5028 65.0975 30.5028C66.3935 30.5028 67.5635 30.8178 68.6075 31.4478C69.6695 32.0598 70.5155 32.8968 71.1455 33.9588C71.7755 35.0208 72.0905 36.1998 72.0905 37.4958C72.0905 38.5938 71.8835 39.5748 71.4695 40.4388C71.0735 41.2848 70.5335 42.0138 69.8495 42.6258C69.1835 43.2378 68.4365 43.7058 67.6085 44.0298C66.7985 44.3358 65.9795 44.4888 65.1515 44.4888ZM65.0975 40.4118C65.5295 40.4118 65.9705 40.3038 66.4205 40.0878C66.8705 39.8718 67.2485 39.5478 67.5545 39.1158C67.8605 38.6838 68.0135 38.1348 68.0135 37.4688C68.0135 36.8928 67.8875 36.3888 67.6355 35.9568C67.3835 35.5248 67.0325 35.1918 66.5825 34.9578C66.1505 34.7058 65.6465 34.5798 65.0705 34.5798C64.5305 34.5798 64.0445 34.7058 63.6125 34.9578C63.1985 35.2098 62.8565 35.5608 62.5865 36.0108C62.3345 36.4428 62.2085 36.9378 62.2085 37.4958C62.2085 38.1438 62.3525 38.6928 62.6405 39.1428C62.9465 39.5748 63.3245 39.8988 63.7745 40.1148C64.2245 40.3128 64.6655 40.4118 65.0975 40.4118ZM75.7785 44.2728C75.1125 44.2728 74.6355 44.1828 74.3475 44.0028C74.0775 43.8048 73.9065 43.5438 73.8345 43.2198C73.7805 42.8958 73.7535 42.5628 73.7535 42.2208V32.7978C73.7535 32.4378 73.7895 32.1048 73.8615 31.7988C73.9335 31.4928 74.1045 31.2498 74.3745 31.0698C74.6625 30.8718 75.1395 30.7728 75.8055 30.7728C76.4355 30.7728 76.8855 30.8628 77.1555 31.0428C77.4435 31.2048 77.6235 31.4028 77.6955 31.6368C77.7675 31.8528 77.8035 32.0418 77.8035 32.2038L77.4795 32.3658C77.5155 32.2938 77.6055 32.1678 77.7495 31.9878C77.9115 31.7898 78.1275 31.5918 78.3975 31.3938C78.6675 31.1778 78.9915 30.9978 79.3695 30.8538C79.7655 30.7098 80.2155 30.6378 80.7195 30.6378C80.9175 30.6378 81.1335 30.6558 81.3675 30.6918C81.6195 30.7098 81.8715 30.7638 82.1235 30.8538C82.3935 30.9258 82.6365 31.0338 82.8525 31.1778C83.0685 31.3038 83.2395 31.4658 83.3655 31.6638C83.5095 31.8618 83.5815 32.1048 83.5815 32.3928C83.5815 33.1308 83.4105 33.7608 83.0685 34.2828C82.7265 34.7868 82.2945 35.0388 81.7725 35.0388C81.4665 35.0388 81.2505 35.0118 81.1245 34.9578C80.9985 34.9038 80.8905 34.8498 80.8005 34.7958C80.7285 34.7418 80.6385 34.6968 80.5305 34.6608C80.4225 34.6068 80.2245 34.5798 79.9365 34.5798C79.6665 34.5798 79.4055 34.6158 79.1535 34.6878C78.9195 34.7598 78.6945 34.8768 78.4785 35.0388C78.2805 35.1828 78.1185 35.3718 77.9925 35.6058C77.8845 35.8218 77.8305 36.0648 77.8305 36.3348V42.2748C77.8305 42.6168 77.7945 42.9498 77.7225 43.2738C77.6685 43.5798 77.4975 43.8228 77.2095 44.0028C76.9215 44.1828 76.4445 44.2728 75.7785 44.2728ZM90.3545 44.2728C89.6165 44.2728 88.9595 44.2278 88.3835 44.1378C87.8255 44.0658 87.3395 43.9218 86.9255 43.7058C86.5295 43.4898 86.2055 43.1928 85.9535 42.8148C85.7015 42.4368 85.5125 41.9508 85.3865 41.3568C85.2785 40.7448 85.2245 39.9978 85.2245 39.1158V26.6418C85.2245 26.2818 85.2515 25.9488 85.3055 25.6428C85.3775 25.3368 85.5575 25.0848 85.8455 24.8868C86.1335 24.6888 86.6015 24.5898 87.2495 24.5898C87.8975 24.5898 88.3565 24.6888 88.6265 24.8868C88.9145 25.0848 89.0945 25.3368 89.1665 25.6428C89.2385 25.9488 89.2745 26.2818 89.2745 26.6418V38.9268C89.2745 39.2148 89.2835 39.4578 89.3015 39.6558C89.3375 39.8358 89.3915 39.9798 89.4635 40.0878C89.5535 40.1958 89.6705 40.2678 89.8145 40.3038C89.9585 40.3398 90.1475 40.3578 90.3815 40.3578C90.5975 40.3578 90.8135 40.3848 91.0295 40.4388C91.2635 40.4928 91.4615 40.6548 91.6235 40.9248C91.7855 41.1948 91.8665 41.6448 91.8665 42.2748C91.8665 42.9228 91.7855 43.3908 91.6235 43.6788C91.4615 43.9668 91.2635 44.1378 91.0295 44.1918C90.8135 44.2458 90.5885 44.2728 90.3545 44.2728ZM99.0696 44.2458C98.2596 44.2458 97.4766 44.0748 96.7206 43.7328C95.9826 43.3728 95.3256 42.8778 94.7496 42.2478C94.1736 41.6178 93.7146 40.8978 93.3726 40.0878C93.0486 39.2598 92.8866 38.3868 92.8866 37.4688C92.8866 36.5868 93.0486 35.7498 93.3726 34.9578C93.7146 34.1478 94.1736 33.4368 94.7496 32.8248C95.3436 32.1948 96.0096 31.6998 96.7476 31.3398C97.4856 30.9798 98.2596 30.7998 99.0696 30.7998C99.9336 30.7998 100.69 30.9798 101.338 31.3398C102.004 31.6818 102.562 32.1588 103.012 32.7708C103.462 33.3828 103.795 34.0938 104.011 34.9038C104.245 35.7138 104.371 36.5598 104.389 37.4418C104.407 38.3598 104.299 39.2238 104.065 40.0338C103.849 40.8438 103.516 41.5638 103.066 42.1938C102.616 42.8238 102.058 43.3278 101.392 43.7058C100.744 44.0658 99.9696 44.2458 99.0696 44.2458ZM99.6096 40.2498C100.096 40.2498 100.528 40.1328 100.906 39.8988C101.302 39.6468 101.617 39.3138 101.851 38.8998C102.103 38.4858 102.229 38.0268 102.229 37.5228C102.229 37.0008 102.112 36.5418 101.878 36.1458C101.644 35.7318 101.329 35.4078 100.933 35.1738C100.537 34.9398 100.087 34.8228 99.5826 34.8228C99.0966 34.8228 98.6466 34.9398 98.2326 35.1738C97.8366 35.4078 97.5216 35.7318 97.2876 36.1458C97.0716 36.5418 96.9636 37.0008 96.9636 37.5228C96.9636 38.0268 97.0806 38.4858 97.3146 38.8998C97.5486 39.3138 97.8726 39.6468 98.2866 39.8988C98.7006 40.1328 99.1416 40.2498 99.6096 40.2498ZM104.335 44.2728C103.723 44.2728 103.264 44.1738 102.958 43.9758C102.652 43.7778 102.454 43.4718 102.364 43.0578V26.6958C102.364 26.3538 102.382 26.0298 102.418 25.7238C102.472 25.3998 102.634 25.1388 102.904 24.9408C103.174 24.7428 103.642 24.6438 104.308 24.6438C104.974 24.6438 105.442 24.7428 105.712 24.9408C106 25.1208 106.171 25.3638 106.225 25.6698C106.297 25.9758 106.333 26.3088 106.333 26.6688V42.2208C106.333 42.5628 106.297 42.8958 106.225 43.2198C106.171 43.5258 106 43.7778 105.712 43.9758C105.442 44.1738 104.983 44.2728 104.335 44.2728Z" fill="#6C6A69"/>
</svg>
